<svg id="Layer_1" data-name="Layer 1" xmlns="http://www.w3.org/2000/svg" viewBox="0 0 64 64"><defs><style>.cls-1{fill:#191919;}</style></defs><rect class="cls-1" x="8.54" y="32.36" width="1.87" height="9.41" rx="0.93"/><rect class="cls-1" x="12.78" y="29.84" width="1.94" height="14.59" rx="0.97"/><rect class="cls-1" x="17.09" y="26.32" width="1.87" height="18.11" rx="0.93"/><rect class="cls-1" x="21.33" y="25.53" width="1.8" height="18.9" rx="0.9"/><rect class="cls-1" x="25.64" y="23.81" width="1.8" height="20.62" rx="0.9"/><circle class="cls-1" cx="48.56" cy="36.74" r="6.9"/><path class="cls-1" d="M48.56,30.24A10.26,10.26,0,0,1,47.41,35a10.36,10.36,0,0,1-9.23,5.63,10.66,10.66,0,0,1-7.94-3.52V23.38a9.65,9.65,0,0,1,2-1.73,10.85,10.85,0,0,1,6-1.79,10.36,10.36,0,0,1,5.25,1.42h0a10.31,10.31,0,0,1,1.64,1.2l0,0a10.33,10.33,0,0,1,3.43,7.32C48.56,30,48.56,30.11,48.56,30.24Z"/><path class="cls-1" d="M47.41,29.19V43.05a.58.58,0,0,1-.58.59H31.3a1.05,1.05,0,0,1-1.06-1.06V22.24a.59.59,0,0,1,.59-.59h9.05A7.54,7.54,0,0,1,47.41,29.19Z"/><path class="cls-1" d="M48.56,30.24A10.26,10.26,0,0,1,47.41,35v4.46a12.44,12.44,0,0,1-2.94,2.85A12.16,12.16,0,0,1,42,43.64H32.82a12.33,12.33,0,0,1-2.58-1.39V21.82l.25-.17a12.44,12.44,0,0,1,6.9-2.08,11.53,11.53,0,0,1,6,1.71h0a13,13,0,0,1,1.64,1.2l0,0a10.33,10.33,0,0,1,3.43,7.32C48.56,30,48.56,30.11,48.56,30.24Z"/><rect class="cls-1" x="47.34" y="42.99" width="1.22" height="0.65"/></svg>